<mxfile host="app.diagrams.net" agent="Mozilla/5.0 (Windows NT 10.0; Win64; x64) AppleWebKit/537.36 (KHTML, like Gecko) Chrome/126.0.0.0 Safari/537.36" version="24.7.4">
  <diagram name="Trang-1" id="RHoZVSpDEULNvFGNIQyn">
    <mxGraphModel grid="1" page="1" gridSize="10" guides="1" tooltips="1" connect="1" arrows="1" fold="1" pageScale="1" pageWidth="2339" pageHeight="3300" math="0" shadow="0">
      <root>
        <mxCell id="0" />
        <mxCell id="1" parent="0" />
        <mxCell id="C92_ROcSfTYuFBgOWo9x-1" value="User" style="swimlane;fontStyle=1;align=center;verticalAlign=top;childLayout=stackLayout;horizontal=1;startSize=26;horizontalStack=0;resizeParent=1;resizeParentMax=0;resizeLast=0;collapsible=1;marginBottom=0;whiteSpace=wrap;html=1;" vertex="1" parent="1">
          <mxGeometry x="670" y="20" width="220" height="150" as="geometry">
            <mxRectangle x="250" y="330" width="70" height="30" as="alternateBounds" />
          </mxGeometry>
        </mxCell>
        <mxCell id="C92_ROcSfTYuFBgOWo9x-2" value="- userId: String&lt;div&gt;- username: String&lt;br&gt;&lt;/div&gt;&lt;div&gt;- password: String&lt;/div&gt;&lt;div&gt;- email: String&lt;/div&gt;" style="text;strokeColor=none;fillColor=none;align=left;verticalAlign=top;spacingLeft=4;spacingRight=4;overflow=hidden;rotatable=0;points=[[0,0.5],[1,0.5]];portConstraint=eastwest;whiteSpace=wrap;html=1;" vertex="1" parent="C92_ROcSfTYuFBgOWo9x-1">
          <mxGeometry y="26" width="220" height="74" as="geometry" />
        </mxCell>
        <mxCell id="C92_ROcSfTYuFBgOWo9x-3" value="" style="line;strokeWidth=1;fillColor=none;align=left;verticalAlign=middle;spacingTop=-1;spacingLeft=3;spacingRight=3;rotatable=0;labelPosition=right;points=[];portConstraint=eastwest;strokeColor=inherit;" vertex="1" parent="C92_ROcSfTYuFBgOWo9x-1">
          <mxGeometry y="100" width="220" height="8" as="geometry" />
        </mxCell>
        <mxCell id="C92_ROcSfTYuFBgOWo9x-4" value="&lt;div&gt;&lt;span style=&quot;background-color: initial;&quot;&gt;+ login(): void&lt;/span&gt;&lt;/div&gt;&lt;div&gt;&lt;span style=&quot;background-color: initial;&quot;&gt;+ logout(): void&lt;/span&gt;&lt;/div&gt;" style="text;strokeColor=none;fillColor=none;align=left;verticalAlign=top;spacingLeft=4;spacingRight=4;overflow=hidden;rotatable=0;points=[[0,0.5],[1,0.5]];portConstraint=eastwest;whiteSpace=wrap;html=1;" vertex="1" parent="C92_ROcSfTYuFBgOWo9x-1">
          <mxGeometry y="108" width="220" height="42" as="geometry" />
        </mxCell>
        <mxCell id="C92_ROcSfTYuFBgOWo9x-5" value="Seller" style="swimlane;fontStyle=1;align=center;verticalAlign=top;childLayout=stackLayout;horizontal=1;startSize=26;horizontalStack=0;resizeParent=1;resizeParentMax=0;resizeLast=0;collapsible=1;marginBottom=0;whiteSpace=wrap;html=1;" vertex="1" parent="1">
          <mxGeometry x="230" y="280" width="270" height="140" as="geometry">
            <mxRectangle x="250" y="330" width="70" height="30" as="alternateBounds" />
          </mxGeometry>
        </mxCell>
        <mxCell id="C92_ROcSfTYuFBgOWo9x-6" value="- sellerId: String&lt;div&gt;- sellerName: String&lt;/div&gt;&lt;div&gt;- sellerAddress: String&lt;/div&gt;&lt;div&gt;- sellerPhoneNumber: String&lt;/div&gt;" style="text;strokeColor=none;fillColor=none;align=left;verticalAlign=top;spacingLeft=4;spacingRight=4;overflow=hidden;rotatable=0;points=[[0,0.5],[1,0.5]];portConstraint=eastwest;whiteSpace=wrap;html=1;" vertex="1" parent="C92_ROcSfTYuFBgOWo9x-5">
          <mxGeometry y="26" width="270" height="64" as="geometry" />
        </mxCell>
        <mxCell id="C92_ROcSfTYuFBgOWo9x-7" value="" style="line;strokeWidth=1;fillColor=none;align=left;verticalAlign=middle;spacingTop=-1;spacingLeft=3;spacingRight=3;rotatable=0;labelPosition=right;points=[];portConstraint=eastwest;strokeColor=inherit;" vertex="1" parent="C92_ROcSfTYuFBgOWo9x-5">
          <mxGeometry y="90" width="270" height="8" as="geometry" />
        </mxCell>
        <mxCell id="C92_ROcSfTYuFBgOWo9x-8" value="&lt;div&gt;&lt;span style=&quot;background-color: initial;&quot;&gt;+&amp;nbsp;&lt;/span&gt;submitAuctionRequest(jewelry: Jewelry): void&lt;/div&gt;&lt;div&gt;&lt;span style=&quot;background-color: initial;&quot;&gt;+&amp;nbsp;&lt;/span&gt;&lt;span style=&quot;background-color: initial;&quot;&gt;viewAuctionStatus(): void&lt;/span&gt;&lt;/div&gt;" style="text;strokeColor=none;fillColor=none;align=left;verticalAlign=top;spacingLeft=4;spacingRight=4;overflow=hidden;rotatable=0;points=[[0,0.5],[1,0.5]];portConstraint=eastwest;whiteSpace=wrap;html=1;" vertex="1" parent="C92_ROcSfTYuFBgOWo9x-5">
          <mxGeometry y="98" width="270" height="42" as="geometry" />
        </mxCell>
        <mxCell id="lpN_ar5oNNIw63qb3rWN-6" value="&lt;p style=&quot;margin:0px;margin-top:4px;text-align:center;&quot;&gt;&lt;b&gt;Customer&lt;/b&gt;&lt;/p&gt;&lt;hr size=&quot;1&quot; style=&quot;border-style:solid;&quot;&gt;&lt;p style=&quot;margin:0px;margin-left:4px;&quot;&gt;- customerId: int&lt;/p&gt;&lt;p style=&quot;margin:0px;margin-left:4px;&quot;&gt;- address: String&lt;br&gt;&lt;/p&gt;&lt;p style=&quot;margin:0px;margin-left:4px;&quot;&gt;- phoneNumber: String&lt;br&gt;&lt;/p&gt;&lt;hr size=&quot;1&quot; style=&quot;border-style:solid;&quot;&gt;&lt;p style=&quot;margin:0px;margin-left:4px;&quot;&gt;+ register(): void&lt;/p&gt;&lt;p style=&quot;margin:0px;margin-left:4px;&quot;&gt;+ updateProfile(): void&lt;br&gt;&lt;/p&gt;&lt;p style=&quot;margin:0px;margin-left:4px;&quot;&gt;+ viewAuctions(): void&lt;br&gt;&lt;/p&gt;&lt;p style=&quot;margin:0px;margin-left:4px;&quot;&gt;+ placeBid(auctionId: int, amount: double): void&lt;br&gt;&lt;/p&gt;" style="verticalAlign=top;align=left;overflow=fill;html=1;whiteSpace=wrap;" vertex="1" parent="1">
          <mxGeometry x="840" y="280" width="260" height="150" as="geometry" />
        </mxCell>
        <mxCell id="lpN_ar5oNNIw63qb3rWN-11" value="Admin" style="swimlane;fontStyle=1;align=center;verticalAlign=top;childLayout=stackLayout;horizontal=1;startSize=26;horizontalStack=0;resizeParent=1;resizeParentMax=0;resizeLast=0;collapsible=1;marginBottom=0;whiteSpace=wrap;html=1;" vertex="1" parent="1">
          <mxGeometry x="1120" y="490" width="300" height="150" as="geometry" />
        </mxCell>
        <mxCell id="lpN_ar5oNNIw63qb3rWN-12" value="- adminId: String&lt;div&gt;- department: String&lt;br&gt;&lt;/div&gt;" style="text;strokeColor=none;fillColor=none;align=left;verticalAlign=top;spacingLeft=4;spacingRight=4;overflow=hidden;rotatable=0;points=[[0,0.5],[1,0.5]];portConstraint=eastwest;whiteSpace=wrap;html=1;" vertex="1" parent="lpN_ar5oNNIw63qb3rWN-11">
          <mxGeometry y="26" width="300" height="34" as="geometry" />
        </mxCell>
        <mxCell id="lpN_ar5oNNIw63qb3rWN-13" value="" style="line;strokeWidth=1;fillColor=none;align=left;verticalAlign=middle;spacingTop=-1;spacingLeft=3;spacingRight=3;rotatable=0;labelPosition=right;points=[];portConstraint=eastwest;strokeColor=inherit;" vertex="1" parent="lpN_ar5oNNIw63qb3rWN-11">
          <mxGeometry y="60" width="300" height="8" as="geometry" />
        </mxCell>
        <mxCell id="lpN_ar5oNNIw63qb3rWN-14" value="+ approveEstimation(requestId: int): void&lt;div&gt;+ assignAuction(jewelryId: int, auctionId: int): void&lt;br&gt;&lt;/div&gt;&lt;div&gt;+ createAuction(auction: Auction): void&lt;br&gt;&lt;/div&gt;&lt;div&gt;+ manageAuction(auctionId: int, action: String): void&lt;br&gt;&lt;/div&gt;&lt;div&gt;+ viewReports(): void&lt;br&gt;&lt;/div&gt;" style="text;strokeColor=none;fillColor=none;align=left;verticalAlign=top;spacingLeft=4;spacingRight=4;overflow=hidden;rotatable=0;points=[[0,0.5],[1,0.5]];portConstraint=eastwest;whiteSpace=wrap;html=1;" vertex="1" parent="lpN_ar5oNNIw63qb3rWN-11">
          <mxGeometry y="68" width="300" height="82" as="geometry" />
        </mxCell>
        <mxCell id="lpN_ar5oNNIw63qb3rWN-15" value="" style="endArrow=block;endSize=16;endFill=0;html=1;rounded=0;exitX=0.467;exitY=0.001;exitDx=0;exitDy=0;exitPerimeter=0;entryX=0.108;entryY=1.04;entryDx=0;entryDy=0;entryPerimeter=0;" edge="1" parent="1" source="C92_ROcSfTYuFBgOWo9x-5" target="C92_ROcSfTYuFBgOWo9x-4">
          <mxGeometry width="160" relative="1" as="geometry">
            <mxPoint x="330" y="340" as="sourcePoint" />
            <mxPoint x="582" y="200" as="targetPoint" />
            <Array as="points">
              <mxPoint x="356" y="240" />
              <mxPoint x="460" y="240" />
              <mxPoint x="693" y="240" />
            </Array>
          </mxGeometry>
        </mxCell>
        <mxCell id="lpN_ar5oNNIw63qb3rWN-16" value="" style="endArrow=block;endSize=16;endFill=0;html=1;rounded=0;exitX=0.533;exitY=0.004;exitDx=0;exitDy=0;exitPerimeter=0;entryX=0.535;entryY=1.01;entryDx=0;entryDy=0;entryPerimeter=0;" edge="1" parent="1" source="lpN_ar5oNNIw63qb3rWN-11" target="8DoTlK2dznRhzNa83eF4-4">
          <mxGeometry width="160" relative="1" as="geometry">
            <mxPoint x="679" y="270" as="sourcePoint" />
            <mxPoint x="679" y="200" as="targetPoint" />
            <Array as="points">
              <mxPoint x="1280" y="470" />
            </Array>
          </mxGeometry>
        </mxCell>
        <mxCell id="8DoTlK2dznRhzNa83eF4-1" value="Employee" style="swimlane;fontStyle=1;align=center;verticalAlign=top;childLayout=stackLayout;horizontal=1;startSize=26;horizontalStack=0;resizeParent=1;resizeParentMax=0;resizeLast=0;collapsible=1;marginBottom=0;whiteSpace=wrap;html=1;" vertex="1" parent="1">
          <mxGeometry x="1120" y="270" width="300" height="160" as="geometry" />
        </mxCell>
        <mxCell id="8DoTlK2dznRhzNa83eF4-2" value="- employeeId: int&lt;div&gt;&lt;span style=&quot;background-color: initial;&quot;&gt;- position: String&lt;/span&gt;&lt;/div&gt;" style="text;strokeColor=none;fillColor=none;align=left;verticalAlign=top;spacingLeft=4;spacingRight=4;overflow=hidden;rotatable=0;points=[[0,0.5],[1,0.5]];portConstraint=eastwest;whiteSpace=wrap;html=1;" vertex="1" parent="8DoTlK2dznRhzNa83eF4-1">
          <mxGeometry y="26" width="300" height="44" as="geometry" />
        </mxCell>
        <mxCell id="8DoTlK2dznRhzNa83eF4-3" value="" style="line;strokeWidth=1;fillColor=none;align=left;verticalAlign=middle;spacingTop=-1;spacingLeft=3;spacingRight=3;rotatable=0;labelPosition=right;points=[];portConstraint=eastwest;strokeColor=inherit;" vertex="1" parent="8DoTlK2dznRhzNa83eF4-1">
          <mxGeometry y="70" width="300" height="8" as="geometry" />
        </mxCell>
        <mxCell id="8DoTlK2dznRhzNa83eF4-4" value="&lt;span style=&quot;background-color: initial;&quot;&gt;+ evaluateJewelry(jewelry: Jewelry): void&lt;/span&gt;&lt;br&gt;&lt;span style=&quot;background-color: initial;&quot;&gt;+ confirmJewelryReceipt(requestId: int): void&lt;/span&gt;&lt;br&gt;&lt;span style=&quot;background-color: initial;&quot;&gt;+ sendFinalEstimation(requestId: int): void&lt;/span&gt;&lt;br&gt;&lt;span style=&quot;background-color: initial;&quot;&gt;+ handleTransaction(transaction: Transaction): void&lt;/span&gt;" style="text;strokeColor=none;fillColor=none;align=left;verticalAlign=top;spacingLeft=4;spacingRight=4;overflow=hidden;rotatable=0;points=[[0,0.5],[1,0.5]];portConstraint=eastwest;whiteSpace=wrap;html=1;" vertex="1" parent="8DoTlK2dznRhzNa83eF4-1">
          <mxGeometry y="78" width="300" height="82" as="geometry" />
        </mxCell>
        <mxCell id="lpN_ar5oNNIw63qb3rWN-17" value="" style="endArrow=block;endSize=16;endFill=0;html=1;rounded=0;exitX=0.25;exitY=0;exitDx=0;exitDy=0;entryX=0.683;entryY=0.998;entryDx=0;entryDy=0;entryPerimeter=0;" edge="1" parent="1" source="lpN_ar5oNNIw63qb3rWN-6" target="C92_ROcSfTYuFBgOWo9x-4">
          <mxGeometry width="160" relative="1" as="geometry">
            <mxPoint x="691" y="292" as="sourcePoint" />
            <mxPoint x="720" y="190" as="targetPoint" />
            <Array as="points">
              <mxPoint x="905" y="240" />
              <mxPoint x="821" y="240" />
            </Array>
          </mxGeometry>
        </mxCell>
        <mxCell id="lpN_ar5oNNIw63qb3rWN-18" value="Jewelry&lt;div&gt;&lt;br&gt;&lt;/div&gt;" style="swimlane;fontStyle=1;align=center;verticalAlign=top;childLayout=stackLayout;horizontal=1;startSize=26;horizontalStack=0;resizeParent=1;resizeParentMax=0;resizeLast=0;collapsible=1;marginBottom=0;whiteSpace=wrap;html=1;" vertex="1" parent="1">
          <mxGeometry x="295" y="530" width="140" height="144" as="geometry" />
        </mxCell>
        <mxCell id="lpN_ar5oNNIw63qb3rWN-19" value="- jewelryId: int&lt;div&gt;- name: String&lt;br&gt;&lt;/div&gt;&lt;div&gt;- description: String&lt;br&gt;&lt;/div&gt;&lt;div&gt;&lt;span style=&quot;background-color: initial;&quot;&gt;- estimatedPrice: double&lt;/span&gt;&lt;br&gt;&lt;/div&gt;&lt;div&gt;- finalPrice: double&lt;br&gt;&lt;/div&gt;" style="text;strokeColor=none;fillColor=none;align=left;verticalAlign=top;spacingLeft=4;spacingRight=4;overflow=hidden;rotatable=0;points=[[0,0.5],[1,0.5]];portConstraint=eastwest;whiteSpace=wrap;html=1;" vertex="1" parent="lpN_ar5oNNIw63qb3rWN-18">
          <mxGeometry y="26" width="140" height="84" as="geometry" />
        </mxCell>
        <mxCell id="lpN_ar5oNNIw63qb3rWN-20" value="" style="line;strokeWidth=1;fillColor=none;align=left;verticalAlign=middle;spacingTop=-1;spacingLeft=3;spacingRight=3;rotatable=0;labelPosition=right;points=[];portConstraint=eastwest;strokeColor=inherit;" vertex="1" parent="lpN_ar5oNNIw63qb3rWN-18">
          <mxGeometry y="110" width="140" height="8" as="geometry" />
        </mxCell>
        <mxCell id="lpN_ar5oNNIw63qb3rWN-21" value="+ updateDetails(): void" style="text;strokeColor=none;fillColor=none;align=left;verticalAlign=top;spacingLeft=4;spacingRight=4;overflow=hidden;rotatable=0;points=[[0,0.5],[1,0.5]];portConstraint=eastwest;whiteSpace=wrap;html=1;" vertex="1" parent="lpN_ar5oNNIw63qb3rWN-18">
          <mxGeometry y="118" width="140" height="26" as="geometry" />
        </mxCell>
        <mxCell id="8DoTlK2dznRhzNa83eF4-5" value="" style="endArrow=block;endSize=16;endFill=0;html=1;rounded=0;exitX=0.463;exitY=-0.025;exitDx=0;exitDy=0;exitPerimeter=0;entryX=0.907;entryY=0.998;entryDx=0;entryDy=0;entryPerimeter=0;" edge="1" parent="1" target="C92_ROcSfTYuFBgOWo9x-4">
          <mxGeometry width="160" relative="1" as="geometry">
            <mxPoint x="1280" y="270" as="sourcePoint" />
            <mxPoint x="1140" y="190" as="targetPoint" />
            <Array as="points">
              <mxPoint x="1280" y="230" />
              <mxPoint x="1280" y="220" />
              <mxPoint x="870" y="220" />
            </Array>
          </mxGeometry>
        </mxCell>
        <mxCell id="8DoTlK2dznRhzNa83eF4-6" value="AuctionRequest" style="swimlane;fontStyle=1;align=center;verticalAlign=top;childLayout=stackLayout;horizontal=1;startSize=26;horizontalStack=0;resizeParent=1;resizeParentMax=0;resizeLast=0;collapsible=1;marginBottom=0;whiteSpace=wrap;html=1;" vertex="1" parent="1">
          <mxGeometry x="580" y="520" width="270" height="170" as="geometry" />
        </mxCell>
        <mxCell id="8DoTlK2dznRhzNa83eF4-7" value="&lt;span style=&quot;background-color: initial;&quot;&gt;- requestId: int&lt;/span&gt;&lt;br&gt;&lt;span style=&quot;background-color: initial;&quot;&gt;- jewelryId: int&lt;/span&gt;&lt;br&gt;&lt;span style=&quot;background-color: initial;&quot;&gt;- sellerId: int&lt;/span&gt;&lt;br&gt;&lt;span style=&quot;background-color: initial;&quot;&gt;- initialEstimation: double&lt;/span&gt;&lt;br&gt;&lt;span style=&quot;background-color: initial;&quot;&gt;- finalEstimation: double&lt;/span&gt;&lt;br&gt;&lt;span style=&quot;background-color: initial;&quot;&gt;- status: String&lt;/span&gt;" style="text;strokeColor=none;fillColor=none;align=left;verticalAlign=top;spacingLeft=4;spacingRight=4;overflow=hidden;rotatable=0;points=[[0,0.5],[1,0.5]];portConstraint=eastwest;whiteSpace=wrap;html=1;" vertex="1" parent="8DoTlK2dznRhzNa83eF4-6">
          <mxGeometry y="26" width="270" height="104" as="geometry" />
        </mxCell>
        <mxCell id="8DoTlK2dznRhzNa83eF4-8" value="" style="line;strokeWidth=1;fillColor=none;align=left;verticalAlign=middle;spacingTop=-1;spacingLeft=3;spacingRight=3;rotatable=0;labelPosition=right;points=[];portConstraint=eastwest;strokeColor=inherit;" vertex="1" parent="8DoTlK2dznRhzNa83eF4-6">
          <mxGeometry y="130" width="270" height="8" as="geometry" />
        </mxCell>
        <mxCell id="8DoTlK2dznRhzNa83eF4-9" value="+&amp;nbsp;updateStatus(newStatus: String): void" style="text;strokeColor=none;fillColor=none;align=left;verticalAlign=top;spacingLeft=4;spacingRight=4;overflow=hidden;rotatable=0;points=[[0,0.5],[1,0.5]];portConstraint=eastwest;whiteSpace=wrap;html=1;" vertex="1" parent="8DoTlK2dznRhzNa83eF4-6">
          <mxGeometry y="138" width="270" height="32" as="geometry" />
        </mxCell>
        <mxCell id="lpN_ar5oNNIw63qb3rWN-22" value="Bid" style="swimlane;fontStyle=1;align=center;verticalAlign=top;childLayout=stackLayout;horizontal=1;startSize=26;horizontalStack=0;resizeParent=1;resizeParentMax=0;resizeLast=0;collapsible=1;marginBottom=0;whiteSpace=wrap;html=1;" vertex="1" parent="1">
          <mxGeometry x="890" y="540" width="170" height="144" as="geometry" />
        </mxCell>
        <mxCell id="lpN_ar5oNNIw63qb3rWN-23" value="- bidId: int&lt;br&gt;- auctionId: int&lt;br&gt;- customerId: int&lt;br&gt;- amount: double&lt;br&gt;- timestamp: Date" style="text;strokeColor=none;fillColor=none;align=left;verticalAlign=top;spacingLeft=4;spacingRight=4;overflow=hidden;rotatable=0;points=[[0,0.5],[1,0.5]];portConstraint=eastwest;whiteSpace=wrap;html=1;" vertex="1" parent="lpN_ar5oNNIw63qb3rWN-22">
          <mxGeometry y="26" width="170" height="84" as="geometry" />
        </mxCell>
        <mxCell id="lpN_ar5oNNIw63qb3rWN-24" value="" style="line;strokeWidth=1;fillColor=none;align=left;verticalAlign=middle;spacingTop=-1;spacingLeft=3;spacingRight=3;rotatable=0;labelPosition=right;points=[];portConstraint=eastwest;strokeColor=inherit;" vertex="1" parent="lpN_ar5oNNIw63qb3rWN-22">
          <mxGeometry y="110" width="170" height="8" as="geometry" />
        </mxCell>
        <mxCell id="lpN_ar5oNNIw63qb3rWN-25" value="+ placeBid(): void" style="text;strokeColor=none;fillColor=none;align=left;verticalAlign=top;spacingLeft=4;spacingRight=4;overflow=hidden;rotatable=0;points=[[0,0.5],[1,0.5]];portConstraint=eastwest;whiteSpace=wrap;html=1;" vertex="1" parent="lpN_ar5oNNIw63qb3rWN-22">
          <mxGeometry y="118" width="170" height="26" as="geometry" />
        </mxCell>
        <mxCell id="8DoTlK2dznRhzNa83eF4-10" value="Auction" style="swimlane;fontStyle=1;align=center;verticalAlign=top;childLayout=stackLayout;horizontal=1;startSize=26;horizontalStack=0;resizeParent=1;resizeParentMax=0;resizeLast=0;collapsible=1;marginBottom=0;whiteSpace=wrap;html=1;" vertex="1" parent="1">
          <mxGeometry x="230" y="770" width="250" height="170" as="geometry" />
        </mxCell>
        <mxCell id="8DoTlK2dznRhzNa83eF4-11" value="&lt;span style=&quot;background-color: initial;&quot;&gt;- auctionId: int&lt;/span&gt;&lt;br&gt;&lt;span style=&quot;background-color: initial;&quot;&gt;- startTime: Date&lt;/span&gt;&lt;br&gt;&lt;span style=&quot;background-color: initial;&quot;&gt;- endTime: Date&lt;/span&gt;&lt;br&gt;&lt;span style=&quot;background-color: initial;&quot;&gt;- status: String&lt;/span&gt;" style="text;strokeColor=none;fillColor=none;align=left;verticalAlign=top;spacingLeft=4;spacingRight=4;overflow=hidden;rotatable=0;points=[[0,0.5],[1,0.5]];portConstraint=eastwest;whiteSpace=wrap;html=1;" vertex="1" parent="8DoTlK2dznRhzNa83eF4-10">
          <mxGeometry y="26" width="250" height="74" as="geometry" />
        </mxCell>
        <mxCell id="8DoTlK2dznRhzNa83eF4-12" value="" style="line;strokeWidth=1;fillColor=none;align=left;verticalAlign=middle;spacingTop=-1;spacingLeft=3;spacingRight=3;rotatable=0;labelPosition=right;points=[];portConstraint=eastwest;strokeColor=inherit;" vertex="1" parent="8DoTlK2dznRhzNa83eF4-10">
          <mxGeometry y="100" width="250" height="8" as="geometry" />
        </mxCell>
        <mxCell id="8DoTlK2dznRhzNa83eF4-13" value="&lt;span style=&quot;background-color: initial;&quot;&gt;+ startAuction(): void&lt;/span&gt;&lt;br&gt;&lt;span style=&quot;background-color: initial;&quot;&gt;+ closeAuction(): void&lt;/span&gt;&lt;br&gt;&lt;span style=&quot;background-color: initial;&quot;&gt;+ pauseAuction(): void&lt;/span&gt;" style="text;strokeColor=none;fillColor=none;align=left;verticalAlign=top;spacingLeft=4;spacingRight=4;overflow=hidden;rotatable=0;points=[[0,0.5],[1,0.5]];portConstraint=eastwest;whiteSpace=wrap;html=1;" vertex="1" parent="8DoTlK2dznRhzNa83eF4-10">
          <mxGeometry y="108" width="250" height="62" as="geometry" />
        </mxCell>
        <mxCell id="lpN_ar5oNNIw63qb3rWN-26" value="Transaction  " style="swimlane;fontStyle=1;align=center;verticalAlign=top;childLayout=stackLayout;horizontal=1;startSize=26;horizontalStack=0;resizeParent=1;resizeParentMax=0;resizeLast=0;collapsible=1;marginBottom=0;whiteSpace=wrap;html=1;" vertex="1" parent="1">
          <mxGeometry x="260" y="1030" width="170" height="170" as="geometry" />
        </mxCell>
        <mxCell id="lpN_ar5oNNIw63qb3rWN-27" value="- transactionId: int&amp;nbsp;&lt;br&gt;- auctionId: int&amp;nbsp;&lt;br&gt;- sellerId: int&amp;nbsp;&lt;br&gt;- customerId: int&amp;nbsp;&lt;br&gt;- amount: double&amp;nbsp;&lt;br&gt;- date: Date" style="text;strokeColor=none;fillColor=none;align=left;verticalAlign=top;spacingLeft=4;spacingRight=4;overflow=hidden;rotatable=0;points=[[0,0.5],[1,0.5]];portConstraint=eastwest;whiteSpace=wrap;html=1;" vertex="1" parent="lpN_ar5oNNIw63qb3rWN-26">
          <mxGeometry y="26" width="170" height="94" as="geometry" />
        </mxCell>
        <mxCell id="lpN_ar5oNNIw63qb3rWN-28" value="" style="line;strokeWidth=1;fillColor=none;align=left;verticalAlign=middle;spacingTop=-1;spacingLeft=3;spacingRight=3;rotatable=0;labelPosition=right;points=[];portConstraint=eastwest;strokeColor=inherit;" vertex="1" parent="lpN_ar5oNNIw63qb3rWN-26">
          <mxGeometry y="120" width="170" height="8" as="geometry" />
        </mxCell>
        <mxCell id="lpN_ar5oNNIw63qb3rWN-29" value="+ processPayment(): void&amp;nbsp;&lt;br&gt;+ generateReceipt(): void" style="text;strokeColor=none;fillColor=none;align=left;verticalAlign=top;spacingLeft=4;spacingRight=4;overflow=hidden;rotatable=0;points=[[0,0.5],[1,0.5]];portConstraint=eastwest;whiteSpace=wrap;html=1;" vertex="1" parent="lpN_ar5oNNIw63qb3rWN-26">
          <mxGeometry y="128" width="170" height="42" as="geometry" />
        </mxCell>
        <mxCell id="lpN_ar5oNNIw63qb3rWN-30" value="Fee" style="swimlane;fontStyle=1;align=center;verticalAlign=top;childLayout=stackLayout;horizontal=1;startSize=26;horizontalStack=0;resizeParent=1;resizeParentMax=0;resizeLast=0;collapsible=1;marginBottom=0;whiteSpace=wrap;html=1;" vertex="1" parent="1">
          <mxGeometry x="510" y="1180" width="160" height="130" as="geometry" />
        </mxCell>
        <mxCell id="lpN_ar5oNNIw63qb3rWN-31" value="- feeId: int&lt;br&gt;- type: String&lt;br&gt;- amount: double" style="text;strokeColor=none;fillColor=none;align=left;verticalAlign=top;spacingLeft=4;spacingRight=4;overflow=hidden;rotatable=0;points=[[0,0.5],[1,0.5]];portConstraint=eastwest;whiteSpace=wrap;html=1;" vertex="1" parent="lpN_ar5oNNIw63qb3rWN-30">
          <mxGeometry y="26" width="160" height="54" as="geometry" />
        </mxCell>
        <mxCell id="lpN_ar5oNNIw63qb3rWN-32" value="" style="line;strokeWidth=1;fillColor=none;align=left;verticalAlign=middle;spacingTop=-1;spacingLeft=3;spacingRight=3;rotatable=0;labelPosition=right;points=[];portConstraint=eastwest;strokeColor=inherit;" vertex="1" parent="lpN_ar5oNNIw63qb3rWN-30">
          <mxGeometry y="80" width="160" height="8" as="geometry" />
        </mxCell>
        <mxCell id="lpN_ar5oNNIw63qb3rWN-33" value="+ calculateFee(): void&lt;br&gt;+ updateFeeDetails(): void" style="text;strokeColor=none;fillColor=none;align=left;verticalAlign=top;spacingLeft=4;spacingRight=4;overflow=hidden;rotatable=0;points=[[0,0.5],[1,0.5]];portConstraint=eastwest;whiteSpace=wrap;html=1;" vertex="1" parent="lpN_ar5oNNIw63qb3rWN-30">
          <mxGeometry y="88" width="160" height="42" as="geometry" />
        </mxCell>
        <mxCell id="lpN_ar5oNNIw63qb3rWN-34" value="Report" style="swimlane;fontStyle=1;align=center;verticalAlign=top;childLayout=stackLayout;horizontal=1;startSize=26;horizontalStack=0;resizeParent=1;resizeParentMax=0;resizeLast=0;collapsible=1;marginBottom=0;whiteSpace=wrap;html=1;" vertex="1" parent="1">
          <mxGeometry x="1160" y="800" width="160" height="140" as="geometry" />
        </mxCell>
        <mxCell id="lpN_ar5oNNIw63qb3rWN-35" value="- reportId: int&lt;br&gt;- type: String&lt;br&gt;- date: Date&amp;nbsp;&lt;br&gt;- content: String" style="text;strokeColor=none;fillColor=none;align=left;verticalAlign=top;spacingLeft=4;spacingRight=4;overflow=hidden;rotatable=0;points=[[0,0.5],[1,0.5]];portConstraint=eastwest;whiteSpace=wrap;html=1;" vertex="1" parent="lpN_ar5oNNIw63qb3rWN-34">
          <mxGeometry y="26" width="160" height="64" as="geometry" />
        </mxCell>
        <mxCell id="lpN_ar5oNNIw63qb3rWN-36" value="" style="line;strokeWidth=1;fillColor=none;align=left;verticalAlign=middle;spacingTop=-1;spacingLeft=3;spacingRight=3;rotatable=0;labelPosition=right;points=[];portConstraint=eastwest;strokeColor=inherit;" vertex="1" parent="lpN_ar5oNNIw63qb3rWN-34">
          <mxGeometry y="90" width="160" height="8" as="geometry" />
        </mxCell>
        <mxCell id="lpN_ar5oNNIw63qb3rWN-37" value="+ generateReport(): void&lt;br&gt;+ viewReport(): void" style="text;strokeColor=none;fillColor=none;align=left;verticalAlign=top;spacingLeft=4;spacingRight=4;overflow=hidden;rotatable=0;points=[[0,0.5],[1,0.5]];portConstraint=eastwest;whiteSpace=wrap;html=1;" vertex="1" parent="lpN_ar5oNNIw63qb3rWN-34">
          <mxGeometry y="98" width="160" height="42" as="geometry" />
        </mxCell>
        <mxCell id="lpN_ar5oNNIw63qb3rWN-44" value="" style="endArrow=none;html=1;rounded=0;entryX=0.5;entryY=0;entryDx=0;entryDy=0;" edge="1" parent="1" source="C92_ROcSfTYuFBgOWo9x-8" target="lpN_ar5oNNIw63qb3rWN-18">
          <mxGeometry relative="1" as="geometry">
            <mxPoint x="310" y="460" as="sourcePoint" />
            <mxPoint x="460" y="440" as="targetPoint" />
            <Array as="points" />
          </mxGeometry>
        </mxCell>
        <mxCell id="lpN_ar5oNNIw63qb3rWN-45" value="" style="resizable=0;html=1;whiteSpace=wrap;align=left;verticalAlign=bottom;" connectable="0" vertex="1" parent="lpN_ar5oNNIw63qb3rWN-44">
          <mxGeometry x="-1" relative="1" as="geometry" />
        </mxCell>
        <mxCell id="lpN_ar5oNNIw63qb3rWN-46" value="" style="resizable=0;html=1;whiteSpace=wrap;align=right;verticalAlign=bottom;" connectable="0" vertex="1" parent="lpN_ar5oNNIw63qb3rWN-44">
          <mxGeometry x="1" relative="1" as="geometry" />
        </mxCell>
        <mxCell id="lpN_ar5oNNIw63qb3rWN-47" value="1" style="text;html=1;align=center;verticalAlign=middle;resizable=0;points=[];autosize=1;strokeColor=none;fillColor=none;" vertex="1" parent="1">
          <mxGeometry x="360" y="420" width="30" height="30" as="geometry" />
        </mxCell>
        <mxCell id="lpN_ar5oNNIw63qb3rWN-49" value="" style="endArrow=none;html=1;rounded=0;exitX=0.393;exitY=1.023;exitDx=0;exitDy=0;exitPerimeter=0;" edge="1" parent="1" source="lpN_ar5oNNIw63qb3rWN-21">
          <mxGeometry width="50" height="50" relative="1" as="geometry">
            <mxPoint x="360" y="570" as="sourcePoint" />
            <mxPoint x="350" y="770" as="targetPoint" />
            <Array as="points">
              <mxPoint x="350" y="720" />
              <mxPoint x="350" y="740" />
            </Array>
          </mxGeometry>
        </mxCell>
        <mxCell id="lpN_ar5oNNIw63qb3rWN-50" value="1" style="text;html=1;align=center;verticalAlign=middle;resizable=0;points=[];autosize=1;strokeColor=none;fillColor=none;" vertex="1" parent="1">
          <mxGeometry x="320" y="674" width="30" height="30" as="geometry" />
        </mxCell>
        <mxCell id="lpN_ar5oNNIw63qb3rWN-51" value="1" style="text;html=1;align=center;verticalAlign=middle;resizable=0;points=[];autosize=1;strokeColor=none;fillColor=none;" vertex="1" parent="1">
          <mxGeometry x="320" y="740" width="30" height="30" as="geometry" />
        </mxCell>
        <mxCell id="8DoTlK2dznRhzNa83eF4-17" value="" style="endArrow=none;html=1;rounded=0;entryX=0.5;entryY=0;entryDx=0;entryDy=0;" edge="1" parent="1">
          <mxGeometry relative="1" as="geometry">
            <mxPoint x="969.41" y="430" as="sourcePoint" />
            <mxPoint x="969.41" y="540" as="targetPoint" />
            <Array as="points" />
          </mxGeometry>
        </mxCell>
        <mxCell id="8DoTlK2dznRhzNa83eF4-18" value="" style="resizable=0;html=1;whiteSpace=wrap;align=left;verticalAlign=bottom;" connectable="0" vertex="1" parent="8DoTlK2dznRhzNa83eF4-17">
          <mxGeometry x="-1" relative="1" as="geometry" />
        </mxCell>
        <mxCell id="8DoTlK2dznRhzNa83eF4-19" value="*" style="resizable=0;html=1;whiteSpace=wrap;align=right;verticalAlign=bottom;" connectable="0" vertex="1" parent="8DoTlK2dznRhzNa83eF4-17">
          <mxGeometry x="1" relative="1" as="geometry">
            <mxPoint x="-9" y="-1" as="offset" />
          </mxGeometry>
        </mxCell>
        <mxCell id="8DoTlK2dznRhzNa83eF4-20" value="1" style="text;html=1;align=center;verticalAlign=middle;resizable=0;points=[];autosize=1;strokeColor=none;fillColor=none;" vertex="1" parent="1">
          <mxGeometry x="945" y="428" width="30" height="30" as="geometry" />
        </mxCell>
        <mxCell id="8DoTlK2dznRhzNa83eF4-21" value="" style="endArrow=none;html=1;rounded=0;entryX=0.221;entryY=-0.008;entryDx=0;entryDy=0;exitX=0.856;exitY=1.048;exitDx=0;exitDy=0;exitPerimeter=0;entryPerimeter=0;" edge="1" parent="1" source="C92_ROcSfTYuFBgOWo9x-8" target="8DoTlK2dznRhzNa83eF4-6">
          <mxGeometry relative="1" as="geometry">
            <mxPoint x="460" y="440" as="sourcePoint" />
            <mxPoint x="460" y="550" as="targetPoint" />
            <Array as="points">
              <mxPoint x="460" y="480" />
              <mxPoint x="640" y="480" />
            </Array>
          </mxGeometry>
        </mxCell>
        <mxCell id="8DoTlK2dznRhzNa83eF4-22" value="" style="resizable=0;html=1;whiteSpace=wrap;align=left;verticalAlign=bottom;" connectable="0" vertex="1" parent="8DoTlK2dznRhzNa83eF4-21">
          <mxGeometry x="-1" relative="1" as="geometry" />
        </mxCell>
        <mxCell id="8DoTlK2dznRhzNa83eF4-23" value="*" style="resizable=0;html=1;whiteSpace=wrap;align=right;verticalAlign=bottom;" connectable="0" vertex="1" parent="8DoTlK2dznRhzNa83eF4-21">
          <mxGeometry x="1" relative="1" as="geometry">
            <mxPoint x="-9" y="-1" as="offset" />
          </mxGeometry>
        </mxCell>
        <mxCell id="8DoTlK2dznRhzNa83eF4-24" value="1" style="text;html=1;align=center;verticalAlign=middle;resizable=0;points=[];autosize=1;strokeColor=none;fillColor=none;" vertex="1" parent="1">
          <mxGeometry x="465" y="420" width="30" height="30" as="geometry" />
        </mxCell>
        <mxCell id="8DoTlK2dznRhzNa83eF4-26" value="1" style="text;html=1;align=center;verticalAlign=middle;resizable=0;points=[];autosize=1;strokeColor=none;fillColor=none;" vertex="1" parent="1">
          <mxGeometry x="435" y="578" width="30" height="30" as="geometry" />
        </mxCell>
        <mxCell id="8DoTlK2dznRhzNa83eF4-27" value="1" style="text;html=1;align=center;verticalAlign=middle;resizable=0;points=[];autosize=1;strokeColor=none;fillColor=none;" vertex="1" parent="1">
          <mxGeometry x="555" y="578" width="30" height="30" as="geometry" />
        </mxCell>
        <mxCell id="8DoTlK2dznRhzNa83eF4-28" value="" style="endArrow=diamondThin;endFill=0;endSize=24;html=1;rounded=0;entryX=0.369;entryY=1.069;entryDx=0;entryDy=0;entryPerimeter=0;exitX=1;exitY=0.054;exitDx=0;exitDy=0;exitPerimeter=0;" edge="1" parent="1" source="8DoTlK2dznRhzNa83eF4-11" target="8DoTlK2dznRhzNa83eF4-9">
          <mxGeometry width="160" relative="1" as="geometry">
            <mxPoint x="570" y="760" as="sourcePoint" />
            <mxPoint x="730" y="760" as="targetPoint" />
            <Array as="points">
              <mxPoint x="680" y="800" />
            </Array>
          </mxGeometry>
        </mxCell>
        <mxCell id="8DoTlK2dznRhzNa83eF4-30" value="" style="endArrow=diamondThin;endFill=1;endSize=24;html=1;rounded=0;entryX=1;entryY=0.75;entryDx=0;entryDy=0;" edge="1" parent="1">
          <mxGeometry width="160" relative="1" as="geometry">
            <mxPoint x="580" y="604" as="sourcePoint" />
            <mxPoint x="435.0000000000002" y="603.99" as="targetPoint" />
          </mxGeometry>
        </mxCell>
        <mxCell id="lpN_ar5oNNIw63qb3rWN-55" value="1" style="text;html=1;align=center;verticalAlign=middle;resizable=0;points=[];autosize=1;strokeColor=none;fillColor=none;" vertex="1" parent="1">
          <mxGeometry x="680" y="690" width="30" height="30" as="geometry" />
        </mxCell>
        <mxCell id="lpN_ar5oNNIw63qb3rWN-56" value="*" style="text;html=1;align=center;verticalAlign=middle;resizable=0;points=[];autosize=1;strokeColor=none;fillColor=none;" vertex="1" parent="1">
          <mxGeometry x="480" y="770" width="30" height="30" as="geometry" />
        </mxCell>
        <mxCell id="vWZ3seE_2avKaMobkSNL-1" value="" style="endArrow=none;html=1;rounded=0;entryX=0.405;entryY=1.1;entryDx=0;entryDy=0;entryPerimeter=0;" edge="1" parent="1" target="lpN_ar5oNNIw63qb3rWN-25">
          <mxGeometry width="50" height="50" relative="1" as="geometry">
            <mxPoint x="480" y="840" as="sourcePoint" />
            <mxPoint x="960" y="840" as="targetPoint" />
            <Array as="points">
              <mxPoint x="959" y="840" />
            </Array>
          </mxGeometry>
        </mxCell>
        <mxCell id="vWZ3seE_2avKaMobkSNL-2" value="1" style="text;html=1;align=center;verticalAlign=middle;resizable=0;points=[];autosize=1;strokeColor=none;fillColor=none;" vertex="1" parent="1">
          <mxGeometry x="475" y="838" width="30" height="30" as="geometry" />
        </mxCell>
        <mxCell id="vWZ3seE_2avKaMobkSNL-3" value="*" style="text;html=1;align=center;verticalAlign=middle;resizable=0;points=[];autosize=1;strokeColor=none;fillColor=none;" vertex="1" parent="1">
          <mxGeometry x="955" y="684" width="30" height="30" as="geometry" />
        </mxCell>
        <mxCell id="8DoTlK2dznRhzNa83eF4-31" value="" style="endArrow=diamondThin;endFill=1;endSize=24;html=1;rounded=0;entryX=0.463;entryY=1.013;entryDx=0;entryDy=0;entryPerimeter=0;exitX=0.5;exitY=0;exitDx=0;exitDy=0;" edge="1" parent="1" source="lpN_ar5oNNIw63qb3rWN-26" target="8DoTlK2dznRhzNa83eF4-13">
          <mxGeometry width="160" relative="1" as="geometry">
            <mxPoint x="575" y="970.01" as="sourcePoint" />
            <mxPoint x="430.0000000000002" y="970" as="targetPoint" />
          </mxGeometry>
        </mxCell>
        <mxCell id="8DoTlK2dznRhzNa83eF4-32" value="1" style="text;html=1;align=center;verticalAlign=middle;resizable=0;points=[];autosize=1;strokeColor=none;fillColor=none;" vertex="1" parent="1">
          <mxGeometry x="345" y="940" width="30" height="30" as="geometry" />
        </mxCell>
        <mxCell id="8DoTlK2dznRhzNa83eF4-33" value="1" style="text;html=1;align=center;verticalAlign=middle;resizable=0;points=[];autosize=1;strokeColor=none;fillColor=none;" vertex="1" parent="1">
          <mxGeometry x="340" y="1000" width="30" height="30" as="geometry" />
        </mxCell>
        <mxCell id="vWZ3seE_2avKaMobkSNL-4" value="" style="endArrow=none;html=1;rounded=0;entryX=0;entryY=0.5;entryDx=0;entryDy=0;" edge="1" parent="1" target="C92_ROcSfTYuFBgOWo9x-8">
          <mxGeometry width="50" height="50" relative="1" as="geometry">
            <mxPoint x="260" y="1100" as="sourcePoint" />
            <mxPoint x="160" y="350" as="targetPoint" />
            <Array as="points">
              <mxPoint x="250" y="1100" />
              <mxPoint x="160" y="1100" />
              <mxPoint x="160" y="750" />
              <mxPoint x="160" y="400" />
            </Array>
          </mxGeometry>
        </mxCell>
        <mxCell id="8DoTlK2dznRhzNa83eF4-34" value="" style="endArrow=none;html=1;rounded=0;entryX=0.923;entryY=1.02;entryDx=0;entryDy=0;entryPerimeter=0;exitX=1;exitY=0.5;exitDx=0;exitDy=0;" edge="1" parent="1" source="lpN_ar5oNNIw63qb3rWN-27" target="lpN_ar5oNNIw63qb3rWN-6">
          <mxGeometry width="50" height="50" relative="1" as="geometry">
            <mxPoint x="520" y="1053" as="sourcePoint" />
            <mxPoint x="999" y="900" as="targetPoint" />
            <Array as="points">
              <mxPoint x="1080" y="1100" />
            </Array>
          </mxGeometry>
        </mxCell>
        <mxCell id="vWZ3seE_2avKaMobkSNL-5" value="*" style="text;html=1;align=center;verticalAlign=middle;resizable=0;points=[];autosize=1;strokeColor=none;fillColor=none;" vertex="1" parent="1">
          <mxGeometry x="230" y="1070" width="30" height="30" as="geometry" />
        </mxCell>
        <mxCell id="vWZ3seE_2avKaMobkSNL-6" value="1" style="text;html=1;align=center;verticalAlign=middle;resizable=0;points=[];autosize=1;strokeColor=none;fillColor=none;" vertex="1" parent="1">
          <mxGeometry x="200" y="368" width="30" height="30" as="geometry" />
        </mxCell>
        <mxCell id="8DoTlK2dznRhzNa83eF4-35" value="1" style="text;html=1;align=center;verticalAlign=middle;resizable=0;points=[];autosize=1;strokeColor=none;fillColor=none;" vertex="1" parent="1">
          <mxGeometry x="1075" y="428" width="30" height="30" as="geometry" />
        </mxCell>
        <mxCell id="vWZ3seE_2avKaMobkSNL-7" value="*" style="text;html=1;align=center;verticalAlign=middle;resizable=0;points=[];autosize=1;strokeColor=none;fillColor=none;" vertex="1" parent="1">
          <mxGeometry x="340" y="510" width="30" height="30" as="geometry" />
        </mxCell>
        <mxCell id="8DoTlK2dznRhzNa83eF4-36" value="*" style="text;html=1;align=center;verticalAlign=middle;resizable=0;points=[];autosize=1;strokeColor=none;fillColor=none;" vertex="1" parent="1">
          <mxGeometry x="435" y="1080" width="30" height="30" as="geometry" />
        </mxCell>
        <mxCell id="8DoTlK2dznRhzNa83eF4-37" value="" style="endArrow=diamondThin;endFill=0;endSize=24;html=1;rounded=0;entryX=0.473;entryY=1.013;entryDx=0;entryDy=0;entryPerimeter=0;exitX=-0.005;exitY=0.992;exitDx=0;exitDy=0;exitPerimeter=0;" edge="1" parent="1" source="lpN_ar5oNNIw63qb3rWN-31" target="lpN_ar5oNNIw63qb3rWN-29">
          <mxGeometry width="160" relative="1" as="geometry">
            <mxPoint x="260" y="1328" as="sourcePoint" />
            <mxPoint x="460" y="1220" as="targetPoint" />
            <Array as="points">
              <mxPoint x="470" y="1260" />
              <mxPoint x="340" y="1260" />
            </Array>
          </mxGeometry>
        </mxCell>
        <mxCell id="8DoTlK2dznRhzNa83eF4-38" value="1" style="text;html=1;align=center;verticalAlign=middle;resizable=0;points=[];autosize=1;strokeColor=none;fillColor=none;" vertex="1" parent="1">
          <mxGeometry x="475" y="1228" width="30" height="30" as="geometry" />
        </mxCell>
        <mxCell id="8DoTlK2dznRhzNa83eF4-39" value="*" style="text;html=1;align=center;verticalAlign=middle;resizable=0;points=[];autosize=1;strokeColor=none;fillColor=none;" vertex="1" parent="1">
          <mxGeometry x="345" y="1198" width="30" height="30" as="geometry" />
        </mxCell>
      </root>
    </mxGraphModel>
  </diagram>
</mxfile>
